<svg width="200" height="45" viewBox="0 0 200 45" fill="none" xmlns="http://www.w3.org/2000/svg">
                    <g clip-path="url(#clip0_5_2)">
                        <path fill-rule="evenodd" clip-rule="evenodd" d="M103.658 0H97.8131L82.9423 24.5726L80.159 29.1849L76.1033 35.8648L71.9681 29.1451L69.1451 24.5726L66.322 29.1849L69.1848 33.7972L73.32 40.4374L76.1033 44.8907L78.8469 40.3976L82.9423 33.7575L85.7654 29.1451L103.658 0Z" fill="#1EB355"></path>
                        <path fill-rule="evenodd" clip-rule="evenodd" d="M15.4672 44.7316C13.2406 44.7316 11.2127 44.334 9.34394 43.5388C7.47515 42.7435 5.84493 41.6302 4.45328 40.2386C3.06163 38.8867 1.98807 37.2167 1.19284 35.3082C0.397614 33.4394 0 31.4115 0 29.2247V29.1451C0 26.998 0.357853 24.9702 1.15308 23.0616C1.90855 21.1928 2.98211 19.5229 4.37376 18.0915C5.76541 16.66 7.39563 15.5467 9.30417 14.7117C11.2127 13.8767 13.3201 13.4791 15.5865 13.4791C16.9781 13.4791 18.2107 13.5984 19.3638 13.7972C20.5169 14.0358 21.5507 14.3539 22.505 14.7515C23.4592 15.1491 24.334 15.666 25.1292 16.2227C25.9245 16.7793 26.7197 17.4155 27.4354 18.1312L24.0159 22.0676C22.8231 20.9543 21.5109 20.0398 20.159 19.3638C18.8072 18.6879 17.2565 18.33 15.5467 18.33C14.1153 18.33 12.7634 18.6084 11.5706 19.165C10.338 19.7217 9.30417 20.4771 8.38966 21.4712C7.51491 22.4254 6.7992 23.5785 6.32207 24.8509C5.84493 26.163 5.60636 27.5149 5.60636 28.9861V29.0656C5.60636 30.5368 5.84493 31.9284 6.36183 33.2406C6.83897 34.5527 7.55467 35.7058 8.42942 36.66C9.34394 37.6541 10.3777 38.4095 11.6103 38.9662C12.8429 39.5229 14.1551 39.8012 15.6262 39.8012C17.4553 39.8012 19.0457 39.4433 20.3579 38.7276C21.67 38.0119 22.9821 37.0577 24.2942 35.8648L27.7137 39.3241C26.9582 40.159 26.1233 40.9145 25.2883 41.5507C24.4533 42.1869 23.5388 42.7833 22.5447 43.2604C21.5507 43.7376 20.4771 44.0954 19.3241 44.334C18.171 44.6123 16.8588 44.7316 15.4672 44.7316Z" fill="#273442"></path>
                        <path fill-rule="evenodd" clip-rule="evenodd" d="M33.2007 13.9562H38.489L38.5685 39.3638L54.4333 39.324L54.473 44.1352L33.2802 44.1749L33.2007 13.9562Z" fill="#273442"></path>
                        <path d="M104.336 13.7907L99.0872 13.804L99.164 44.0227L104.413 44.0094L104.336 13.7907Z" fill="#273442"></path>
                        <path fill-rule="evenodd" clip-rule="evenodd" d="M112.366 13.7574H118.012L127.236 27.992L136.421 13.6779H142.067L142.147 43.8966L136.859 43.9364L136.819 22.2266L127.316 36.501H127.117L117.654 22.3857L117.694 43.9761H112.445L112.366 13.7574Z" fill="#273442"></path>
                        <path fill-rule="evenodd" clip-rule="evenodd" d="M149.145 13.6779L154.394 13.6382L154.473 39.0855L170.378 39.0457V43.8171L149.225 43.8966L149.145 13.6779Z" fill="#273442"></path>
                        <path fill-rule="evenodd" clip-rule="evenodd" d="M182.704 31.8886L170.656 13.5984H176.899L185.407 26.9582L193.916 13.5586L200 13.5189L188.032 31.7296L188.072 43.7773L182.704 43.8171V31.8886Z" fill="#273442"></path>
                        <path fill-rule="evenodd" clip-rule="evenodd" d="M68.2704 35.3081L65.4076 30.6958L57.1372 44.1352H62.9424L68.2704 35.3081ZM86.7197 30.6561L83.8569 35.3081L89.2247 44.0557H95.0299L86.7197 30.6561ZM76.0239 22.4652L79.2048 27.6739L81.9881 23.0616L78.7674 17.8926L75.9841 13.3996L73.2406 17.8926L70.0994 23.0219L72.9225 27.6342L76.0239 22.4652Z" fill="#273442"></path>
                    </g>
                    <defs>
                        <clipPath id="clip0_5_2">
                            <rect width="200" height="44.8907" fill="white"></rect>
                        </clipPath>
                    </defs>
                </svg>